<svg xmlns="http://www.w3.org/2000/svg" viewBox="0 0 100 100">
  <defs><linearGradient id="g" x1="0" y1="0" x2="0.35" y2="1">
    <stop offset="0" stop-color="#5B93F7"/><stop offset="1" stop-color="#1E56D6"/>
  </linearGradient></defs>
  <rect width="100" height="100" rx="22" fill="url(#g)"/>
  <g transform="translate(13,13) scale(0.74)">
  <g fill="none" stroke="#FFFFFF" stroke-width="5.6" stroke-linecap="round" stroke-linejoin="round">
    <g><path d="M47 16 L30 25 L21 40 L21 60 L30 76 L47 85 Z"/><path d="M30 45 V38 C30 33 34 30 38 30 C42 30 44.5 32.5 44.5 36 C44.5 39 42.5 40.5 40 40.5"/><path d="M47 51 H36 C31 51 28 54 28 59 C28 63.5 31 66.5 35 66"/></g>
    <g transform="translate(100,0) scale(-1,1)"><path d="M47 16 L30 25 L21 40 L21 60 L30 76 L47 85 Z"/><path d="M30 45 V38 C30 33 34 30 38 30 C42 30 44.5 32.5 44.5 36 C44.5 39 42.5 40.5 40 40.5"/><path d="M47 51 H36 C31 51 28 54 28 59 C28 63.5 31 66.5 35 66"/></g>
  </g>
  <g fill="#FFFFFF"><path d="M17,13.5 C17.9,18.45 19.55,20.1 24.5,21 C19.55,21.9 17.9,23.55 17,28.5 C16.1,23.55 14.45,21.9 9.5,21 C14.45,20.1 16.1,18.45 17,13.5 Z"/><path d="M83,18 C83.72,21.96 85.04,23.28 89,24 C85.04,24.72 83.72,26.04 83,30 C82.28,26.04 80.96,24.72 77,24 C80.96,23.28 82.28,21.96 83,18 Z"/><path d="M16,72.5 C16.78,76.79 18.21,78.22 22.5,79 C18.21,79.78 16.78,81.21 16,85.5 C15.22,81.21 13.79,79.78 9.5,79 C13.79,78.22 15.22,76.79 16,72.5 Z"/><path d="M84,71 C84.6,74.3 85.7,75.4 89,76 C85.7,76.6 84.6,77.7 84,81 C83.4,77.7 82.3,76.6 79,76 C82.3,75.4 83.4,74.3 84,71 Z"/><path d="M30,9.4 C30.312,11.116 30.884,11.688 32.6,12 C30.884,12.312 30.312,12.884 30,14.6 C29.688,12.884 29.116,12.312 27.4,12 C29.116,11.688 29.688,11.116 30,9.4 Z"/><path d="M70,85.6 C70.288,87.184 70.816,87.712 72.4,88 C70.816,88.288 70.288,88.816 70,90.4 C69.712,88.816 69.184,88.288 67.6,88 C69.184,87.712 69.712,87.184 70,85.6 Z"/></g>
  </g>
</svg>
